<svg width="18.000000" height="17.500000" viewBox="0 0 18 17.5" fill="none" xmlns="http://www.w3.org/2000/svg" xmlns:xlink="http://www.w3.org/1999/xlink">
	<desc>
			Created with Pixso.
	</desc>
	<defs/>
	<path id="Vector" d="M16.0714 0L1.92859 0C1.41705 0 0.926514 0.19751 0.56488 0.549194C0.203186 0.900757 0 1.37769 0 1.875L0 15.625C0 16.1223 0.203186 16.5992 0.56488 16.9508C0.926514 17.3025 1.41705 17.5 1.92859 17.5L7.44305 17.5L7.44305 11.5504L4.9118 11.5504L4.9118 8.75L7.44305 8.75L7.44305 6.6156C7.44305 4.18787 8.92969 2.84692 11.2066 2.84692C12.2971 2.84692 13.4373 3.03589 13.4373 3.03589L13.4373 5.4187L12.1809 5.4187C10.9431 5.4187 10.5569 6.16565 10.5569 6.93164L10.5569 8.75L13.3204 8.75L12.8784 11.5504L10.5569 11.5504L10.5569 17.5L16.0714 17.5C16.5829 17.5 17.0735 17.3025 17.4351 16.9508C17.7968 16.5992 18 16.1223 18 15.625L18 1.875C18 1.37769 17.7968 0.900757 17.4351 0.549194C17.0735 0.19751 16.5829 0 16.0714 0Z" fill="#FFFFFF" fill-opacity="1.000000" fill-rule="nonzero"/>
</svg>
