<svg width="18.000000" height="17.500000" viewBox="0 0 18 17.5" fill="none" xmlns="http://www.w3.org/2000/svg" xmlns:xlink="http://www.w3.org/1999/xlink">
	<desc>
			Created with Pixso.
	</desc>
	<defs/>
	<path id="Vector" d="M16.0714 0L1.92859 0C0.863831 0 0 0.839844 0 1.875L0 15.625C0 16.6602 0.863831 17.5 1.92859 17.5L16.0714 17.5C17.1362 17.5 18 16.6602 18 15.625L18 1.875C18 0.839844 17.1362 0 16.0714 0ZM14.1067 6.20312C14.1147 6.3125 14.1147 6.42578 14.1147 6.53516C14.1147 9.92188 11.463 13.8242 6.61743 13.8242C5.12274 13.8242 3.73663 13.4023 2.57141 12.6758C2.78436 12.6992 2.98926 12.707 3.20624 12.707C4.43976 12.707 5.57275 12.3008 6.47681 11.6133C5.31964 11.5898 4.34735 10.8516 4.01385 9.83594C4.41962 9.89453 4.78528 9.89453 5.20312 9.78906C3.99774 9.55078 3.09375 8.51953 3.09375 7.27344L3.09375 7.24219C3.4433 7.43359 3.85315 7.55078 4.28302 7.56641C3.92163 7.33264 3.62531 7.01562 3.42059 6.64343C3.21588 6.27124 3.10913 5.85559 3.1098 5.43359C3.1098 4.95703 3.2384 4.51953 3.46741 4.14062C4.7652 5.69531 6.71387 6.71094 8.89954 6.82031C8.52588 5.08203 9.86383 3.67188 11.471 3.67188C12.2303 3.67188 12.9134 3.98047 13.3955 4.48047C13.9902 4.37109 14.5607 4.15625 15.067 3.86328C14.8701 4.45703 14.4562 4.95703 13.9099 5.27344C14.4402 5.21875 14.9545 5.07422 15.4286 4.875C15.071 5.38672 14.621 5.83984 14.1067 6.20312Z" fill="#FFFFFF" fill-opacity="1.000000" fill-rule="nonzero"/>
</svg>
