<svg width="18.000000" height="17.500000" viewBox="0 0 18 17.5" fill="none" xmlns="http://www.w3.org/2000/svg" xmlns:xlink="http://www.w3.org/1999/xlink">
	<desc>
			Created with Pixso.
	</desc>
	<defs/>
	<path id="Vector" d="M16.0714 0L1.92859 0C0.863831 0 0 0.839844 0 1.875L0 15.625C0 16.6602 0.863831 17.5 1.92859 17.5L16.0714 17.5C17.1362 17.5 18 16.6602 18 15.625L18 1.875C18 0.839844 17.1362 0 16.0714 0ZM15.4205 5.84375C15.3643 7.05859 14.4884 8.72656 12.7969 10.8398C11.0491 13.0469 9.57056 14.1523 8.36115 14.1523C7.6098 14.1523 6.979 13.4805 6.46069 12.1367C5.44824 8.53125 5.01831 6.41797 4.18262 6.41797C4.08618 6.41797 3.74866 6.61328 3.17413 7.00781L2.57141 6.25C4.05402 4.98438 5.46832 3.57812 6.35223 3.5C7.35266 3.40625 7.96741 4.07031 8.20044 5.49609C9.02411 10.5586 9.38971 11.3242 10.8844 9.03125C11.4228 8.20312 11.712 7.57812 11.7482 7.14453C11.8848 5.86328 10.7197 5.94922 9.93213 6.27734C10.5629 4.26562 11.7723 3.28906 13.5522 3.34375C14.8741 3.38281 15.4969 4.21875 15.4205 5.84375Z" fill="#FFFFFF" fill-opacity="1.000000" fill-rule="nonzero"/>
</svg>
