<svg width="18.000000" height="17.500000" viewBox="0 0 18 17.5" fill="none" xmlns="http://www.w3.org/2000/svg" xmlns:xlink="http://www.w3.org/1999/xlink">
	<desc>
			Created with Pixso.
	</desc>
	<defs/>
	<path id="Vector" d="M7.50537 6.64453L11.3304 8.75781L7.50537 10.8711L7.50537 6.64453ZM18 1.875L18 15.625C18 16.6602 17.1362 17.5 16.0714 17.5L1.92859 17.5C0.863831 17.5 0 16.6602 0 15.625L0 1.875C0 0.839844 0.863831 0 1.92859 0L16.0714 0C17.1362 0 18 0.839844 18 1.875ZM16.3125 8.76172C16.3125 8.76172 16.3125 6.43359 16.0071 5.31641C15.8384 4.69922 15.3442 4.21484 14.7134 4.05078C13.5764 3.75 9 3.75 9 3.75C9 3.75 4.42365 3.75 3.28662 4.05078C2.65582 4.21484 2.16162 4.69922 1.99286 5.31641C1.6875 6.42969 1.6875 8.76172 1.6875 8.76172C1.6875 8.76172 1.6875 11.0898 1.99286 12.207C2.16162 12.8242 2.65582 13.2891 3.28662 13.4531C4.42365 13.75 9 13.75 9 13.75C9 13.75 13.5764 13.75 14.7134 13.4492C15.3442 13.2852 15.8384 12.8203 16.0071 12.2031C16.3125 11.0898 16.3125 8.76172 16.3125 8.76172Z" fill="#FFFFFF" fill-opacity="1.000000" fill-rule="nonzero"/>
</svg>
