<svg width="18.000000" height="17.500000" viewBox="0 0 18 17.5" fill="none" xmlns="http://www.w3.org/2000/svg" xmlns:xlink="http://www.w3.org/1999/xlink">
	<desc>
			Created with Pixso.
	</desc>
	<defs/>
	<path id="Vector" d="M18 1.875L18 15.625C18 16.6602 17.1362 17.5 16.0714 17.5L6.20355 17.5C6.59735 16.8594 7.10358 15.9375 7.30444 15.1836C7.42499 14.7344 7.91919 12.9023 7.91919 12.9023C8.2406 13.5 9.18079 14.0039 10.1813 14.0039C13.1585 14.0039 15.3 11.3438 15.3 8.03906C15.3 4.87109 12.6402 2.5 9.21698 2.5C4.95801 2.5 2.70001 5.27734 2.70001 8.30469C2.70001 9.71094 3.47144 11.4609 4.70087 12.0195C4.88971 12.1055 4.98615 12.0664 5.03033 11.8906C5.0625 11.7578 5.23126 11.1055 5.30359 10.8047C5.3277 10.707 5.31561 10.625 5.23529 10.5312C4.82947 10.0508 4.5 9.16797 4.5 8.34375C4.5 6.22656 6.14734 4.17969 8.95581 4.17969C11.3786 4.17969 13.0781 5.78516 13.0781 8.08203C13.0781 10.6758 11.7321 12.4727 9.97632 12.4727C9.00806 12.4727 8.28485 11.6953 8.51385 10.7383C8.79108 9.59766 9.32947 8.36719 9.32947 7.54297C9.32947 5.47266 6.29596 5.75781 6.29596 8.51953C6.29596 9.36719 6.58929 9.94531 6.58929 9.94531C5.3277 15.1328 5.13885 15.1992 5.40002 17.4688L5.4884 17.5L1.92859 17.5C0.863831 17.5 0 16.6602 0 15.625L0 1.875C0 0.839844 0.863831 0 1.92859 0L16.0714 0C17.1362 0 18 0.839844 18 1.875Z" fill="#FFFFFF" fill-opacity="1.000000" fill-rule="nonzero"/>
</svg>
